<svg width="320" height="318" xmlns="http://www.w3.org/2000/svg" xmlns:xlink="http://www.w3.org/1999/xlink" overflow="hidden"><defs><clipPath id="clip0"><rect x="521" y="1297" width="320" height="318"/></clipPath><clipPath id="clip1"><rect x="660" y="1434" width="180" height="180"/></clipPath><clipPath id="clip2"><rect x="660" y="1434" width="180" height="180"/></clipPath><clipPath id="clip3"><rect x="660" y="1434" width="180" height="180"/></clipPath><clipPath id="clip4"><rect x="521" y="1298" width="180" height="180"/></clipPath><clipPath id="clip5"><rect x="521" y="1298" width="180" height="180"/></clipPath><clipPath id="clip6"><rect x="521" y="1298" width="180" height="180"/></clipPath></defs><g clip-path="url(#clip0)" transform="translate(-521 -1297)"><g clip-path="url(#clip1)"><g clip-path="url(#clip2)"><g clip-path="url(#clip3)"><path d="M746.25 1595.25 746.25 1599.94C746.25 1602 747.938 1603.69 750 1603.69 752.063 1603.69 753.75 1602 753.75 1599.94L753.75 1595.25C793.5 1593.38 825 1563.94 825 1527.75 825 1526.63 824.25 1525.88 823.125 1525.88 822 1525.88 821.25 1526.63 821.25 1527.75 821.25 1539 811.125 1548 798.75 1548 786.375 1548 776.25 1539 776.25 1527.75 776.25 1526.63 775.5 1525.88 774.375 1525.88 773.25 1525.88 772.5 1526.63 772.5 1527.75 772.5 1537.69 764.438 1546.13 753.75 1547.63L753.75 1471.5 755.625 1471.5 755.625 1463.06C755.625 1461 757.313 1459.31 759.375 1459.31 761.438 1459.31 763.125 1461 763.125 1463.06 763.125 1466.25 765.563 1468.69 768.75 1468.69 771.938 1468.69 774.375 1466.25 774.375 1463.06 774.375 1454.81 767.625 1448.06 759.375 1448.06 751.125 1448.06 744.375 1454.81 744.375 1463.06L744.375 1471.5 746.25 1471.5 746.25 1547.63C735.563 1545.94 727.5 1537.69 727.5 1527.75 727.5 1526.63 726.75 1525.88 725.625 1525.88 724.5 1525.88 723.75 1526.63 723.75 1527.75 723.75 1539 713.625 1548 701.25 1548 688.875 1548 678.75 1539 678.75 1527.75 678.75 1526.63 678 1525.88 676.875 1525.88 675.75 1525.88 675 1526.63 675 1527.75 675 1563.94 706.5 1593.38 746.25 1595.25Z" fill="#2E75B6"/></g></g></g><g clip-path="url(#clip4)"><g clip-path="url(#clip5)"><g clip-path="url(#clip6)"><path d="M614.75 1316.75 614.75 1312.06C614.75 1310 613.063 1308.31 611 1308.31 608.938 1308.31 607.25 1310 607.25 1312.06L607.25 1316.75C567.5 1318.63 536 1348.06 536 1384.25 536 1385.38 536.75 1386.13 537.875 1386.13 539 1386.13 539.75 1385.38 539.75 1384.25 539.75 1373 549.875 1364 562.25 1364 574.625 1364 584.75 1373 584.75 1384.25 584.75 1385.38 585.5 1386.13 586.625 1386.13 587.75 1386.13 588.5 1385.38 588.5 1384.25 588.5 1374.31 596.563 1365.88 607.25 1364.38L607.25 1440.5 605.375 1440.5 605.375 1448.94C605.375 1451 603.688 1452.69 601.625 1452.69 599.563 1452.69 597.875 1451 597.875 1448.94 597.875 1445.75 595.438 1443.31 592.25 1443.31 589.063 1443.31 586.625 1445.75 586.625 1448.94 586.625 1457.19 593.375 1463.94 601.625 1463.94 609.875 1463.94 616.625 1457.19 616.625 1448.94L616.625 1440.5 614.75 1440.5 614.75 1364.38C625.438 1366.06 633.5 1374.31 633.5 1384.25 633.5 1385.38 634.25 1386.13 635.375 1386.13 636.5 1386.13 637.25 1385.38 637.25 1384.25 637.25 1373 647.375 1364 659.75 1364 672.125 1364 682.25 1373 682.25 1384.25 682.25 1385.38 683 1386.13 684.125 1386.13 685.25 1386.13 686 1385.38 686 1384.25 686 1348.06 654.5 1318.63 614.75 1316.75Z" fill="#2E75B6"/></g></g></g><path d="M558.029 1560.11C568.85 1574.64 592.588 1577.03 617.064 1566.06L611.046 1557.99 638.402 1559.91 629.727 1583.06 623.709 1574.98C599.234 1585.95 575.496 1583.56 564.675 1569.03Z" fill="#FF7C80" fill-rule="evenodd"/><path d="M591.183 1496.54C565.218 1515.88 552.654 1544.83 561.802 1564.24 544.206 1548.47 551.435 1516.57 577.948 1492.98 580.059 1491.11 582.26 1489.31 584.537 1487.62Z" fill="#CD6467" fill-rule="evenodd"/><path d="M558.029 1560.11C568.85 1574.64 592.588 1577.03 617.064 1566.06L611.046 1557.99 638.402 1559.91 629.727 1583.06 623.709 1574.98C599.234 1585.95 575.496 1583.56 564.675 1569.03L558.029 1560.11C544.072 1541.38 555.94 1508.92 584.537 1487.62L591.183 1496.54C565.218 1515.88 552.654 1544.83 561.802 1564.24" stroke="#FF696D" stroke-width="1.33333" stroke-miterlimit="8" fill="none" fill-rule="evenodd"/></g></svg>