<svg width="282" height="281" xmlns="http://www.w3.org/2000/svg" xmlns:xlink="http://www.w3.org/1999/xlink" overflow="hidden"><defs><clipPath id="clip0"><rect x="890" y="1258" width="282" height="281"/></clipPath><clipPath id="clip1"><rect x="891" y="1258" width="280" height="280"/></clipPath><clipPath id="clip2"><rect x="891" y="1258" width="280" height="280"/></clipPath><clipPath id="clip3"><rect x="891" y="1258" width="280" height="280"/></clipPath></defs><g clip-path="url(#clip0)" transform="translate(-890 -1258)"><g clip-path="url(#clip1)"><g clip-path="url(#clip2)"><g clip-path="url(#clip3)"><path d="M1025.17 1508.83 1025.17 1516.13C1025.17 1519.33 1027.79 1521.96 1031 1521.96 1034.21 1521.96 1036.83 1519.33 1036.83 1516.13L1036.83 1508.83C1098.67 1505.92 1147.67 1460.13 1147.67 1403.83 1147.67 1402.08 1146.5 1400.92 1144.75 1400.92 1143 1400.92 1141.83 1402.08 1141.83 1403.83 1141.83 1421.33 1126.08 1435.33 1106.83 1435.33 1087.58 1435.33 1071.83 1421.33 1071.83 1403.83 1071.83 1402.08 1070.67 1400.92 1068.92 1400.92 1067.17 1400.92 1066 1402.08 1066 1403.83 1066 1419.29 1053.46 1432.42 1036.83 1434.75L1036.83 1316.33 1039.75 1316.33 1039.75 1303.21C1039.75 1300 1042.38 1297.38 1045.58 1297.38 1048.79 1297.38 1051.42 1300 1051.42 1303.21 1051.42 1308.17 1055.21 1311.96 1060.17 1311.96 1065.13 1311.96 1068.92 1308.17 1068.92 1303.21 1068.92 1290.38 1058.42 1279.88 1045.58 1279.88 1032.75 1279.88 1022.25 1290.38 1022.25 1303.21L1022.25 1316.33 1025.17 1316.33 1025.17 1434.75C1008.54 1432.13 996 1419.29 996 1403.83 996 1402.08 994.833 1400.92 993.083 1400.92 991.333 1400.92 990.167 1402.08 990.167 1403.83 990.167 1421.33 974.417 1435.33 955.167 1435.33 935.917 1435.33 920.167 1421.33 920.167 1403.83 920.167 1402.08 919 1400.92 917.25 1400.92 915.5 1400.92 914.333 1402.08 914.333 1403.83 914.333 1460.13 963.333 1505.92 1025.17 1508.83Z" fill="#2E75B6"/></g></g></g><path d="M947 1477C947.254 1476.83 948.133 1476.28 948.502 1476.16 949.49 1475.83 949.714 1475.99 950.503 1475.48 950.966 1475.17 951.838 1474.47 951.838 1474.47 952.107 1473.61 951.895 1474.28 952.505 1473.63 952.758 1473.42 952.938 1473.11 953.173 1472.95 953.335 1472.8 953.631 1472.77 953.84 1472.61 954.086 1472.37 954.235 1472.16 954.507 1471.94 954.718 1471.8 954.998 1471.74 955.175 1471.6 955.384 1471.45 955.618 1471.25 955.842 1471.1 956.11 1470.96 956.416 1470.92 956.676 1470.76 956.937 1470.65 957.11 1470.4 957.343 1470.25 957.512 1470.15 957.693 1470.13 957.844 1470.08 958.092 1469.94 958.344 1469.68 958.678 1469.58 958.855 1469.48 959.123 1469.48 959.345 1469.41 959.582 1469.27 959.771 1469.18 960.013 1469.07 960.334 1468.95 960.871 1468.84 961.18 1468.73 962.223 1468.18 961.121 1468.69 963.016 1468.06 963.164 1468.03 963.334 1467.93 963.516 1467.89 964.502 1467.8 965.797 1467.64 966.686 1467.55 967.03 1467.44 967.325 1467.41 967.687 1467.39 971.772 1467.11 972.113 1467.32 976.695 1467.39 976.916 1467.44 977.908 1467.59 978.197 1467.72 978.446 1467.82 978.631 1467.96 978.864 1468.06 979.116 1468.17 979.281 1468.16 979.532 1468.23 979.751 1468.36 979.957 1468.45 980.199 1468.57 980.609 1468.71 981.35 1468.73 981.7 1468.9 982.018 1468.99 982.404 1469.1 982.701 1469.24 982.913 1469.31 983.157 1469.37 983.369 1469.41 983.542 1469.46 983.695 1469.55 983.869 1469.58 984.13 1469.65 984.309 1469.66 984.536 1469.75 986.523 1470.24 983.721 1469.66 985.704 1470.08 985.936 1470.21 986.171 1470.31 986.371 1470.42 987.568 1471.19 986.45 1470.62 987.539 1471.1 987.736 1471.29 988.007 1471.49 988.207 1471.6 988.424 1471.69 988.636 1471.67 988.874 1471.77 989.342 1471.94 989.862 1472.23 990.375 1472.28 990.62 1472.29 990.938 1472.37 991.21 1472.45 991.389 1472.5 991.554 1472.58 991.71 1472.61 992.008 1472.7 992.375 1472.66 992.711 1472.78 993.963 1472.89 992.423 1472.44 994.713 1473.12 995.097 1473.21 995.621 1473.34 996.047 1473.46 996.335 1473.52 997.469 1473.52 998.049 1473.8 999.801 1473.13 1004.34 1473.39 1005.06 1473.63 1005.28 1473.66 1005.49 1473.49 1005.72 1473.46 1006.12 1473.39 1006.45 1473.36 1006.89 1473.29 1007.81 1472.98 1006.64 1473.23 1008.56 1472.95 1008.71 1472.93 1008.89 1472.83 1009.06 1472.78 1009.39 1472.66 1009.86 1472.67 1010.23 1472.61 1010.38 1472.56 1010.54 1472.5 1010.73 1472.45 1011.04 1472.36 1011.89 1472.21 1012.23 1472.11 1012.45 1472.04 1012.66 1471.87 1012.9 1471.77 1013.08 1471.7 1013.35 1471.68 1013.56 1471.6 1013.72 1471.55 1013.9 1471.47 1014.06 1471.43 1016.41 1469.48 1013.76 1471.51 1015.23 1470.76 1016.36 1470.12 1016.28 1469.84 1017.57 1469.41 1017.91 1469.32 1018.28 1469.11 1018.57 1469.07 1019.04 1468.96 1019.47 1468.84 1019.9 1468.73 1020.6 1468.5 1021.52 1468.19 1022.24 1468.06 1022.61 1468.05 1023.07 1467.94 1023.41 1467.89 1023.7 1467.81 1023.99 1467.78 1024.24 1467.72 1024.64 1467.64 1025.07 1467.61 1025.41 1467.55 1025.65 1467.52 1025.85 1467.45 1026.08 1467.39 1026.44 1467.28 1027.01 1467.27 1027.41 1467.22 1028.84 1466.46 1027.84 1466.92 1029.75 1466.71 1030.1 1466.69 1030.94 1466.48 1031.25 1466.37 1031.43 1466.31 1031.58 1466.21 1031.75 1466.2 1032.47 1466.14 1033.15 1466.03 1033.75 1466.04 1036.21 1466.2 1038.16 1465.68 1040.26 1466.2 1040.43 1466.21 1040.59 1466.35 1040.76 1466.37 1041.57 1466.61 1041.31 1466.4 1042.09 1466.88 1042.59 1467.16 1042.64 1467.37 1043.26 1467.55 1045.28 1468.29 1043.45 1467.11 1045.09 1468.06 1045.57 1468.27 1046.09 1468.47 1046.43 1468.73 1047.27 1469.48 1046.87 1469.1 1047.76 1469.58 1047.86 1469.74 1047.93 1469.94 1048.1 1470.08 1048.23 1470.22 1048.45 1470.18 1048.6 1470.25 1048.79 1470.31 1048.94 1470.47 1049.1 1470.59 1049.68 1470.92 1049.7 1470.91 1050.27 1471.1 1050.58 1471.36 1050.99 1471.59 1051.27 1471.77 1052.14 1472.22 1051.9 1471.96 1052.6 1472.28 1052.82 1472.4 1053.07 1472.57 1053.27 1472.61 1053.48 1472.7 1053.72 1472.74 1053.94 1472.78 1054.89 1473.17 1053.54 1472.91 1055.27 1473.12 1055.48 1473.23 1055.7 1473.37 1055.94 1473.46 1057.11 1473.75 1056.11 1473.35 1057.11 1473.8 1057.34 1473.91 1057.55 1474.07 1057.77 1474.13 1058.01 1474.2 1058.22 1474.26 1058.44 1474.3 1060.48 1474.92 1058.4 1474.14 1059.94 1474.64 1062.31 1474.17 1066.38 1474.51 1068.12 1474.47 1068.59 1474.47 1069.07 1474.28 1069.45 1474.3 1070.7 1474.42 1071.91 1474.21 1072.96 1474.13 1073.44 1474.1 1073.89 1474 1074.29 1473.96 1074.96 1473.86 1076.29 1473.63 1076.29 1473.63 1076.61 1473.49 1076.84 1473.4 1077.13 1473.29 1077.43 1473.2 1077.69 1473.18 1077.96 1473.12 1078.13 1473.07 1078.28 1472.97 1078.46 1472.95 1078.74 1472.88 1079.04 1472.83 1079.29 1472.78 1079.68 1472.69 1080.05 1472.55 1080.46 1472.45 1081.1 1472.25 1081.29 1472.28 1081.96 1472.11 1082.2 1471.98 1082.52 1471.83 1082.8 1471.6 1082.95 1471.49 1083.12 1471.33 1083.3 1471.26 1083.62 1471.12 1084.3 1470.93 1084.3 1470.93 1087.22 1468.98 1084.78 1470.36 1086.64 1469.41 1086.83 1469.3 1086.98 1469.15 1087.14 1469.07 1087.75 1468.87 1088.32 1468.69 1088.97 1468.57 1089.24 1468.51 1089.61 1468.46 1089.97 1468.4 1090.34 1468.3 1090.63 1468.09 1090.97 1468.06 1091.27 1467.99 1091.58 1467.95 1091.81 1467.89 1092.24 1467.84 1092.69 1467.67 1093.14 1467.55 1093.25 1467.5 1093.55 1467.44 1093.81 1467.39 1094.87 1466.49 1094.17 1466.97 1095.98 1466.71 1098.9 1466.25 1095.46 1466.47 1097.31 1466.37 1100.17 1465.67 1098.45 1466.27 1099.81 1465.87 1102.04 1463.98 1100.61 1465.29 1107.49 1465.7 1107.78 1465.71 1108.05 1465.83 1108.32 1465.87 1108.52 1465.95 1109.28 1466.08 1109.49 1466.2 1110.68 1466.93 1109.14 1466.28 1110.49 1466.71 1110.89 1467.12 1111.03 1467.32 1111.49 1467.55 1111.65 1467.61 1111.82 1467.68 1111.99 1467.72 1112.18 1467.84 1112.33 1467.99 1112.49 1468.06 1112.64 1468.15 1112.86 1468.12 1112.99 1468.23 1113.97 1468.96 1112.67 1468.4 1114.16 1468.9 1115.27 1469.9 1114.27 1469.06 1115.16 1469.58 1115.84 1470 1116.25 1470.41 1116.83 1470.76 1116.99 1470.89 1117.17 1470.97 1117.33 1471.1 1117.44 1471.25 1117.55 1471.45 1117.67 1471.6 1118.3 1472.24 1118.04 1471.8 1118.67 1472.11 1118.81 1472.22 1118.9 1472.35 1119 1472.45" stroke="#2F528F" stroke-width="2" stroke-miterlimit="8" stroke-dasharray="8 6" fill="none" fill-rule="evenodd"/></g></svg>