<svg width="137" height="142" xmlns="http://www.w3.org/2000/svg" xmlns:xlink="http://www.w3.org/1999/xlink" overflow="hidden"><defs><clipPath id="clip0"><rect x="573" y="828" width="137" height="142"/></clipPath><clipPath id="clip1"><rect x="573" y="846" width="123" height="123"/></clipPath><clipPath id="clip2"><rect x="573" y="846" width="123" height="123"/></clipPath><clipPath id="clip3"><rect x="573" y="846" width="123" height="123"/></clipPath><clipPath id="clip4"><rect x="656" y="829" width="27" height="27"/></clipPath><clipPath id="clip5"><rect x="656" y="829" width="27" height="27"/></clipPath><clipPath id="clip6"><rect x="656" y="829" width="27" height="27"/></clipPath><clipPath id="clip7"><rect x="580" y="850" width="27" height="27"/></clipPath><clipPath id="clip8"><rect x="580" y="850" width="27" height="27"/></clipPath><clipPath id="clip9"><rect x="580" y="850" width="27" height="27"/></clipPath><clipPath id="clip10"><rect x="682" y="897" width="27" height="27"/></clipPath><clipPath id="clip11"><rect x="682" y="897" width="27" height="27"/></clipPath><clipPath id="clip12"><rect x="682" y="897" width="27" height="27"/></clipPath></defs><g clip-path="url(#clip0)" transform="translate(-573 -828)"><g clip-path="url(#clip1)"><g clip-path="url(#clip2)"><g clip-path="url(#clip3)"><path d="M632.38 900.025 626.411 903.016 621.222 894.443C620.545 893.343 619.487 892.532 618.249 892.165L600.584 887.115C598.821 886.727 596.979 887.234 595.663 888.47L589.67 894.465 585.526 889.083C583.862 886.929 580.802 886.458 578.567 888.011 576.553 889.755 576.191 892.743 577.729 894.918L585.256 904.957 585.373 905.085C586.297 906.175 587.618 906.853 589.043 906.968 590.475 907.014 591.872 906.523 592.959 905.59L596.843 901.706C596.861 901.688 596.87 901.693 596.863 901.719L593.596 914.068C593.267 915.006 593.076 915.988 593.03 916.981 593.123 918.756 593.712 920.47 594.73 921.927L601.457 932.741 597.088 948.295C596.399 950.926 597.83 953.649 600.388 954.573 600.488 954.624 600.599 954.649 600.711 954.645 600.779 954.66 600.857 954.69 600.936 954.715 601.226 954.828 601.532 954.893 601.842 954.906 604.158 955.047 606.211 953.425 606.61 951.139L611.618 933.605C611.927 932.236 611.69 930.799 610.957 929.602L609.58 927.413C609.564 927.39 609.572 927.382 609.596 927.397L614.361 930.256 614.361 947.425C614.442 949.558 615.725 951.461 617.672 952.336 620.311 953.277 623.213 951.9 624.153 949.261 624.343 948.729 624.442 948.168 624.447 947.603L624.447 927.523C624.38 925.78 623.502 924.168 622.073 923.167L612.138 917.158 615.775 905.29 620.06 912.369C620.979 913.887 622.642 914.795 624.417 914.748 625.229 914.697 626.022 914.479 626.746 914.107L636.782 909.087C638.076 908.461 639.057 907.332 639.497 905.963 639.876 904.736 639.728 903.407 639.089 902.293 637.745 899.953 634.868 898.981 632.38 900.025ZM637.037 905.219C636.811 905.917 636.306 906.49 635.642 906.802L625.607 911.82C625.236 912.011 624.835 912.136 624.422 912.188 623.546 912.233 622.715 911.796 622.255 911.049L616.504 901.545C616.306 901.245 616.009 901.025 615.664 900.923 615.012 900.779 614.358 901.161 614.163 901.8L609.395 917.366C609.248 917.926 609.474 918.518 609.958 918.838L620.642 925.291C621.367 925.816 621.822 926.635 621.885 927.529L621.885 947.226C621.851 948.043 621.529 948.821 620.976 949.422 619.974 950.318 618.435 950.232 617.539 949.229 617.139 948.782 616.919 948.203 616.92 947.603L616.92 929.537C616.895 929.095 616.665 928.689 616.299 928.439L606.263 922.418C605.656 922.053 604.869 922.25 604.505 922.857 604.256 923.271 604.261 923.79 604.519 924.199L608.747 930.919C609.123 931.525 609.26 932.25 609.131 932.952L604.119 950.512C604.104 950.568 604.092 950.625 604.083 950.683 603.895 951.71 602.961 952.427 601.92 952.344 601.864 952.328 601.804 952.307 601.744 952.286 601.551 952.216 601.354 952.162 601.153 952.123 599.901 951.616 599.22 950.26 599.559 948.954L604.075 932.893C604.153 932.545 604.102 932.181 603.931 931.868L596.904 920.569C596.134 919.522 595.679 918.278 595.592 916.981 595.643 916.237 595.798 915.504 596.051 914.803L600.569 897.737C600.75 897.053 600.342 896.351 599.658 896.17 599.653 896.169 599.648 896.167 599.642 896.166 599.19 896.088 598.727 896.225 598.391 896.536L591.148 903.784C590.543 904.237 589.797 904.46 589.043 904.412 588.34 904.271 587.707 903.894 587.249 903.344L579.818 893.438C579.076 892.396 579.193 890.971 580.096 890.065 581.212 889.331 582.707 889.594 583.506 890.664L588.525 897.19C588.75 897.482 589.09 897.663 589.459 897.687 589.827 897.712 590.187 897.576 590.447 897.314L597.472 890.281C598.156 889.678 599.083 889.427 599.978 889.604L617.588 894.634C618.202 894.84 618.723 895.257 619.06 895.811L624.825 905.349C625.171 905.918 625.894 906.128 626.491 905.832L633.448 902.349C634.727 901.879 636.158 902.39 636.85 903.564 637.139 904.066 637.207 904.665 637.037 905.219Z"/><path d="M613.012 888.611C617.158 889.574 621.3 886.995 622.264 882.849 622.531 881.7 622.531 880.504 622.263 879.355 621.477 876.577 619.306 874.407 616.528 873.621 612.382 872.658 608.24 875.239 607.278 879.385 607.011 880.533 607.011 881.727 607.279 882.876 608.064 885.654 610.235 887.825 613.012 888.611ZM613.38 876.173C616.117 875.412 618.953 877.014 619.714 879.752 619.966 880.656 619.965 881.612 619.712 882.516 619.155 884.192 617.839 885.507 616.163 886.065 613.425 886.825 610.59 885.223 609.829 882.486 609.578 881.584 609.579 880.631 609.83 879.729 610.386 878.05 611.702 876.732 613.38 876.173Z"/><path d="M652.733 875.794C656.879 876.758 661.021 874.178 661.985 870.032 662.252 868.883 662.252 867.688 661.984 866.54 661.198 863.762 659.027 861.591 656.249 860.805 652.103 859.842 647.96 862.423 646.998 866.57 646.731 867.718 646.731 868.912 646.999 870.061 647.785 872.838 649.956 875.009 652.733 875.794ZM653.1 863.357C655.836 862.596 658.672 864.198 659.433 866.934 659.684 867.837 659.683 868.79 659.432 869.693 658.875 871.37 657.559 872.685 655.883 873.243 653.145 874.003 650.31 872.4 649.55 869.662 649.3 868.761 649.3 867.809 649.551 866.907 650.108 865.231 651.423 863.915 653.1 863.357Z"/><path d="M690.336 875.529C688.296 873.784 685.26 873.896 683.354 875.785L678.982 880.157 672.394 875.324C671.152 874.366 669.51 874.1 668.029 874.618L650.498 879.623C649.736 879.886 649.053 880.335 648.508 880.928L642.394 887.044 634.618 887.044C632.493 887.124 630.598 888.401 629.726 890.34 628.786 892.968 630.155 895.86 632.782 896.8 633.314 896.99 633.874 897.09 634.438 897.095L644.421 897.095C645.669 897.04 646.873 896.616 647.88 895.877L648.07 895.721 653.351 890.439 657.614 903.027 646.756 910.191C645.158 911.271 644.256 913.121 644.389 915.045L644.401 915.214 646.896 932.689C647.264 935.177 649.394 937.023 651.908 937.034L652.408 937.034 652.55 937.026C653.884 936.848 655.09 936.14 655.897 935.062 656.712 933.997 657.08 932.656 656.922 931.324L654.795 916.903 660.58 913.094C660.599 913.08 660.608 913.088 660.598 913.109L659.73 915 659.684 915.12C659.364 915.944 659.258 916.836 659.377 917.713L661.873 935.185C662.238 937.673 664.367 939.521 666.882 939.531L667.382 939.531 667.527 939.524C670.289 939.133 672.231 936.605 671.897 933.836L669.698 917.469 675.292 904.818C675.693 903.858 675.899 902.828 675.901 901.787 675.837 900.832 675.654 899.888 675.358 898.978L672.328 887.61C672.328 887.591 672.328 887.584 672.348 887.597L676.405 890.639C678.447 892.009 681.155 891.841 683.012 890.229L690.5 882.74C692.449 880.874 692.517 877.781 690.651 875.831 690.551 875.726 690.445 875.625 690.336 875.529ZM688.688 880.928 681.286 888.339C680.326 889.162 678.936 889.248 677.883 888.548L670.895 883.306C670.328 882.883 669.525 882.999 669.102 883.566 668.868 883.88 668.79 884.282 668.89 884.66L672.902 899.702C673.129 900.39 673.276 901.101 673.339 901.823 673.33 902.495 673.198 903.159 672.948 903.783L667.208 916.763C667.123 916.982 667.089 917.217 667.11 917.45L669.35 934.165C669.481 935.486 668.598 936.693 667.3 936.969L666.889 936.969C665.647 936.963 664.596 936.052 664.415 934.824L661.919 917.366C661.856 916.905 661.916 916.435 662.092 916.005L664.782 910.135C664.984 909.656 664.915 909.106 664.602 908.692 664.178 908.214 663.468 908.122 662.936 908.474L652.701 915.213C652.306 915.504 652.092 915.981 652.139 916.47L654.381 931.669C654.448 932.329 654.256 932.988 653.847 933.509 653.476 934.015 652.926 934.358 652.309 934.47L651.901 934.47C650.659 934.464 649.609 933.553 649.425 932.326L646.952 914.949C646.893 913.946 647.331 912.978 648.122 912.36L659.852 904.622C660.32 904.287 660.525 903.694 660.365 903.141L655.123 887.664C654.896 886.993 654.169 886.634 653.499 886.861 653.312 886.924 653.142 887.029 653.003 887.169L646.353 893.816C645.786 894.226 645.118 894.473 644.421 894.532L634.811 894.532C634.002 894.5 633.231 894.182 632.633 893.636 631.746 892.638 631.835 891.11 632.833 890.222 633.275 889.829 633.847 889.612 634.438 889.611L642.924 889.611C643.26 889.593 643.58 889.461 643.83 889.236L650.327 882.737C650.578 882.441 650.899 882.212 651.261 882.072L668.775 877.068C669.477 876.787 670.277 876.907 670.867 877.38L678.353 882.872C678.869 883.229 679.564 883.175 680.019 882.744L685.237 877.519C686.199 876.558 687.757 876.558 688.718 877.519 689.168 877.968 689.426 878.574 689.439 879.21 689.428 879.86 689.157 880.479 688.688 880.928Z"/></g></g></g><g clip-path="url(#clip4)"><g clip-path="url(#clip5)"><g clip-path="url(#clip6)"><path d="M662.469 846.156C662.469 850.039 665.617 853.188 669.5 853.188 673.383 853.188 676.531 850.039 676.531 846.156 676.531 841.684 669.5 831.813 669.5 831.813 669.5 831.813 662.469 841.713 662.469 846.156ZM675.969 846.156C675.969 849.729 673.073 852.625 669.5 852.625 665.927 852.625 663.031 849.729 663.031 846.156 663.031 842.586 667.955 835.072 669.501 832.801 671.047 835.067 675.969 842.562 675.969 846.156Z" stroke="#000000" stroke-width="1.125"/></g></g></g><g clip-path="url(#clip7)"><g clip-path="url(#clip8)"><g clip-path="url(#clip9)"><path d="M586.469 867.156C586.469 871.039 589.617 874.188 593.5 874.188 597.383 874.188 600.531 871.039 600.531 867.156 600.531 862.684 593.5 852.813 593.5 852.813 593.5 852.813 586.469 862.713 586.469 867.156ZM599.969 867.156C599.969 870.729 597.073 873.625 593.5 873.625 589.927 873.625 587.031 870.729 587.031 867.156 587.031 863.586 591.955 856.072 593.501 853.801 595.047 856.067 599.969 863.562 599.969 867.156Z" stroke="#000000" stroke-width="1.125"/></g></g></g><g clip-path="url(#clip10)"><g clip-path="url(#clip11)"><g clip-path="url(#clip12)"><path d="M688.469 914.156C688.469 918.039 691.617 921.188 695.5 921.188 699.383 921.188 702.531 918.039 702.531 914.156 702.531 909.684 695.5 899.813 695.5 899.813 695.5 899.813 688.469 909.713 688.469 914.156ZM701.969 914.156C701.969 917.729 699.073 920.625 695.5 920.625 691.927 920.625 689.031 917.729 689.031 914.156 689.031 910.586 693.955 903.072 695.501 900.801 697.047 903.067 701.969 910.562 701.969 914.156Z" stroke="#000000" stroke-width="1.125"/></g></g></g></g></svg>