<svg viewBox="0 0 96 96" xmlns="http://www.w3.org/2000/svg" xmlns:xlink="http://www.w3.org/1999/xlink" id="Icons_Rain_M" overflow="hidden"><g id="Icons"><path d="M48.0982 60.5308C50.5405 64.3981 53.1048 69.1208 53.1048 70.899 53.1048 73.6604 50.8662 75.899 48.1048 75.899 45.3434 75.899 43.1048 73.6604 43.1048 70.899 43.1048 69.07 45.6607 64.3671 48.0982 60.5308ZM48.1048 56.899C48.1048 56.899 41.1048 66.999 41.1048 70.899 41.1048 74.765 44.2388 77.899 48.1048 77.899 51.9708 77.899 55.1048 74.765 55.1048 70.899 55.1048 67.0989 48.1048 56.899 48.1048 56.899Z"/><path d="M65.0968 60.5709C66.7345 63.2521 68.1048 65.9594 68.1048 66.899 68.1048 68.5559 66.7617 69.899 65.1048 69.899 63.4479 69.899 62.1048 68.5559 62.1048 66.899 62.1048 65.9217 63.4666 63.2238 65.0968 60.5709ZM65.1048 56.899C65.1048 56.899 60.1048 64.099 60.1048 66.899 60.1048 69.6604 62.3434 71.899 65.1048 71.899 67.8662 71.899 70.1048 69.6604 70.1048 66.899 70.1048 64.199 65.1048 56.899 65.1048 56.899Z"/><path d="M31.0968 60.5709C32.7346 63.2521 34.1048 65.9594 34.1048 66.899 34.1048 68.5559 32.7617 69.899 31.1048 69.899 29.4479 69.899 28.1048 68.5559 28.1048 66.899 28.1048 65.9217 29.4666 63.2238 31.0968 60.5709ZM31.1048 56.899C31.1048 56.899 26.1048 64.099 26.1048 66.899 26.1048 69.6604 28.3434 71.899 31.1048 71.899 33.8662 71.899 36.1048 69.6604 36.1048 66.899 36.1048 64.199 31.1048 56.899 31.1048 56.899Z"/><path d="M42.5723 16.9726 42.5723 16.9726C47.1619 16.9667 51.3803 19.4934 53.5409 23.5426L54.3298 25.0186 55.9218 24.5023C56.9467 24.1681 58.0178 23.9973 59.0958 23.9961 61.1904 23.9873 63.2314 24.6574 64.9131 25.9061L64.9421 25.9276 64.9721 25.9476C67.5914 27.7876 69.137 30.7992 69.1048 34L69.1048 36.4888 71.4564 36.0688C71.8841 35.9924 72.3178 35.9538 72.7523 35.9535 74.4958 35.9563 76.1808 36.5824 77.5032 37.7186 79.1591 39.1412 80.1096 41.217 80.1048 43.4 80.1377 47.4419 76.9808 50.7925 72.9441 51L25.0741 51C19.561 50.5702 15.4403 45.7525 15.8701 40.2394 16.2762 35.0308 20.6188 31.0099 25.8432 31.0051 26.4481 31.0052 27.0517 31.0597 27.6468 31.1678L29.9686 31.59 30.0044 29.23C30.1969 22.421 35.7606 16.9948 42.5723 16.9726M42.5723 14.9726C34.6678 14.9949 28.2138 21.2983 28.0048 29.2 27.2916 29.0703 26.5683 29.005 25.8434 29.005 19.2106 28.968 13.8036 34.315 13.7666 40.9478 13.7311 47.3069 18.6587 52.5914 25.0048 53L73.0048 53C78.1177 52.7493 82.1276 48.519 82.1048 43.4 82.1153 40.6319 80.9086 37.9991 78.8048 36.2 76.6851 34.3767 73.8567 33.6053 71.1048 34.1L71.1048 34C71.0498 27.3914 65.7044 22.0484 59.0958 21.9962 57.8083 21.9976 56.529 22.2013 55.3048 22.6 52.7869 17.9089 47.8965 14.9793 42.5724 14.9726Z"/></g></svg>