<svg width="76" height="58" xmlns="http://www.w3.org/2000/svg" xmlns:xlink="http://www.w3.org/1999/xlink" overflow="hidden"><defs><clipPath id="clip0"><rect x="955" y="869" width="76" height="58"/></clipPath><clipPath id="clip1"><rect x="966" y="872" width="57" height="54"/></clipPath><clipPath id="clip2"><rect x="966" y="872" width="57" height="54"/></clipPath><clipPath id="clip3"><rect x="966" y="872" width="57" height="54"/></clipPath></defs><g clip-path="url(#clip0)" transform="translate(-955 -869)"><g clip-path="url(#clip1)"><g clip-path="url(#clip2)"><g clip-path="url(#clip3)"><path d="M12.9375 34.3125C12.9375 42.079 19.2335 48.375 27 48.375 34.7665 48.375 41.0625 42.079 41.0625 34.3125 41.0625 25.3687 27 5.625 27 5.625 27 5.625 12.9375 25.425 12.9375 34.3125ZM39.9375 34.3125C39.9375 41.4577 34.1452 47.25 27 47.25 19.8548 47.25 14.0625 41.4577 14.0625 34.3125 14.0625 27.172 23.9096 12.1444 27.0012 7.60253 30.0943 12.1344 39.9375 27.1238 39.9375 34.3125Z" stroke="#000000" stroke-width="0.9" transform="matrix(1.05556 0 -0 1 966 872)"/></g></g></g><path d="M968.5 881 973.851 879.674 975 873.5 976.149 879.674 981.5 881 976.149 882.326 975 888.5 973.851 882.326Z" stroke="#000000" stroke-miterlimit="8" fill="none" fill-rule="evenodd"/><path d="M1010.5 892.5 1017.91 890.556 1019.5 881.5 1021.09 890.556 1028.5 892.5 1021.09 894.445 1019.5 903.5 1017.91 894.445Z" stroke="#000000" stroke-miterlimit="8" fill="none" fill-rule="evenodd"/><path d="M958.5 910.5 964.674 908.909 966 901.5 967.326 908.909 973.5 910.5 967.326 912.091 966 919.5 964.674 912.091Z" stroke="#000000" stroke-miterlimit="8" fill="none" fill-rule="evenodd"/></g></svg>